# exported by https://3dviewer.net
mtllib model.mtl
g ImageToStl.com_multi_shaped_object006
v 83.495642149 11.927948878 25.18122541
v 152.412680112 11.927948878 25.18122541
v 152 65.553861406 23.952147838
v 152.412680112 -1.325327653 3.975982959
v 152 0 0
v 152 72.893020923 0
v 83.495642149 0 0
v 83.495642149 72.893020923 0
v 152.412680112 72.893020923 17.229259491
v 83.495642149 65.553861406 23.952147838
v 83.495642149 70.242365617 22.530570104
v 152.412680112 6.626638266 17.229259491
v 83.495642149 -1.325327653 3.975982959
v 152.412680112 70.242365617 22.530570104
v 83.495642149 72.893020923 17.229259491
v 83.495642149 6.626638266 17.229259491
vn 0 0.02291345401211624 0.9997374523469821
vn 0.9946566175296787 0 -0.1032386226390999
vn 0 0 -1
vn 0 0 -1
vn 0.9997041282215182 0.004275928024759039 -0.023945196937618193
vn 1 0 0
vn 0 1 0
vn 0 0.022913454012116242 0.9997374523469824
vn 0 0.2901604774371291 0.956978002533735
vn -1 0 0
vn -1 0 0
vn 1 0 0
vn 0 -0.8320502943700389 0.5547001961769363
vn 0 -0.8574929257182532 0.5144957554180117
vn 0 -0.9486832980505138 -0.31622776601683794
vn 0 -0.9486832980505138 -0.31622776601683794
vn 0.9462396534181032 0.014687853055137763 0.3231327672518193
vn 1 0 0
vn 0 0.8944271910336601 0.44721359543246947
vn 0 0.2901604774371291 0.956978002533735
vn 0 1 0
vn 0 0.8944271910336601 0.44721359543246947
vn -0.9999999999999999 0 0
vn -1 0 0
vn 0 -0.8574929257182532 0.5144957554180117
vn 0 -0.8320502943700389 0.5547001961769363
vn -1 0 0
vn -0.9999999999999999 0 0
usemtl Material
f 1//1 2//1 3//1
f 4//2 5//2 6//2
f 7//3 6//3 5//3
f 7//4 8//4 6//4
f 9//5 4//5 6//5
f 9//6 2//6 4//6
f 9//7 6//7 8//7
f 10//8 1//8 3//8
f 10//9 3//9 11//9
f 10//10 7//10 1//10
f 10//11 8//11 7//11
f 12//12 4//12 2//12
f 12//13 2//13 1//13
f 13//14 4//14 12//14
f 13//15 7//15 5//15
f 13//16 5//16 4//16
f 14//17 3//17 2//17
f 14//18 2//18 9//18
f 14//19 9//19 11//19
f 14//20 11//20 3//20
f 15//21 9//21 8//21
f 15//22 11//22 9//22
f 15//23 10//23 11//23
f 15//24 8//24 10//24
f 16//25 13//25 12//25
f 16//26 12//26 1//26
f 16//27 1//27 7//27
f 16//28 7//28 13//28
