# exported by https://3dviewer.net
mtllib model.mtl
g ImageToStl.com_multi_shaped_object004
v 49.56260439 56.035864857 54.170299133
v 49.761916559 23.83200335 54.129671384
v 49.037123167 59.408380885 35.703149459
v 9.277293572 59.639744392 49.037123167
v 11.360676765 59.408380885 35.703149459
v 38.434501941 33.133191329 54.338433779
v 9.277293572 19.879914797 49.037123167
v 49.037123167 20.539523244 35.553782094
v 49.037123167 57.5 47.676734924
v 11.360676765 20.539523244 35.553782094
v 46.38646786 22.530570104 54.338433779
v 41.085157248 51.687778473 54.338433779
v 41.085157248 27.831880716 54.338433779
v 49.037123167 19.879914797 49.037123167
v 38.434501941 46.38646786 54.338433779
vn 0.9996077183376808 0.006221099618997407 -0.027307642872763917
vn 0 0.9998494979273543 -0.017348818242672027
vn -0.17888543818216654 0 0.9838699101031467
vn 0.9992386203843856 0.00014992832016198535 -0.039014831203123566
vn 0 0.0038428261385557274 -0.999992616316375
vn 0.05981466330667512 0.9747915054270313 0.2149505222157213
vn 0.627796939720863 0.7686751353980669 0.12251342252130136
vn 0.05843126555367552 0.9858483047776847 0.15712704150706017
vn -0.9880108570662407 0.0005932724494712288 -0.15438327094291338
vn -0.9882720928681428 0 -0.15270321037234685
vn 0 -0.9988055479449043 -0.048861819393873504
vn 0 0.0038428261385557274 -0.999992616316375
vn 0.062065413217939965 -0.0008750197359696935 0.9980717002412943
vn -0.10199726182770429 0.23623030799216294 0.9663290330759905
vn 0.018138316857411824 0.003297875791917376 0.9998300482966297
vn 0 0 1
vn 0 0 1
vn -0.146156819027356 -0.07307840952746301 0.9865585285793951
vn -0.1310243564001725 -0.1310243564001725 0.9826826731248707
vn 0.9854085308742389 -0.1700025352605805 -0.008316566914845875
vn 0.3300315523487528 -0.7679217483543814 0.5489766505586761
vn 0 -0.8944271909324288 0.44721359563493196
vn 0 -0.9988055479449042 -0.0488618193938735
vn -0.14615681902735603 0.07307840952746303 0.9865585285793951
vn -0.17888543818216662 0 0.983869910103147
vn 0 0 1
usemtl Material
f 1//1 2//1 3//1
f 4//2 3//2 5//2
f 6//3 4//3 7//3
f 8//4 3//4 2//4
f 8//5 5//5 3//5
f 9//6 4//6 1//6
f 9//7 1//7 3//7
f 9//8 3//8 4//8
f 10//9 4//9 5//9
f 10//10 7//10 4//10
f 10//11 8//11 7//11
f 10//12 5//12 8//12
f 11//13 2//13 1//13
f 12//14 1//14 4//14
f 12//15 11//15 1//15
f 12//16 6//16 11//16
f 13//17 11//17 6//17
f 13//18 6//18 7//18
f 13//19 7//19 11//19
f 14//20 8//20 2//20
f 14//21 2//21 11//21
f 14//22 11//22 7//22
f 14//23 7//23 8//23
f 15//24 12//24 4//24
f 15//25 4//25 6//25
f 15//26 6//26 12//26
