# exported by https://3dviewer.net
mtllib model.mtl
g ImageToStl.com_multi_shaped_object007
v 152 72.893020923 0
v 152 72.829179175 11.889444325
v 11.360676765 72.893020923 0
v 11.360676765 80 0
v 9.277293572 80.844986842 3.975982959
v 9.277293572 75.54367623 11.927948878
v 11.360676765 72.829179175 11.889444325
v 152.412680112 78.194331536 9.277293572
v 9.277293572 78.194331536 9.277293572
v 152 80 0
v 152.412680112 80.844986842 3.975982959
vn 0 -0.9999855839248666 -0.00536953838274235
vn 0 0 -0.9999999999999999
vn -0.8857650970457132 0 -0.4641338092141084
vn -0.9732289608506561 -0.19123656471476533 -0.12749104312714413
vn 0 -0.014183356655301384 0.9998994111379347
vn -0.7933042612302238 -0.6088166078758541 -0.003269111271794111
vn 0 -0.9999855839248666 -0.00536953838274235
vn 0.00855787531621514 0.4371988727014412 0.8993241398287167
vn 0.9970393490888798 -0.07689191048812895 -0.0004128800167977412
vn 0 0.8944271910336602 0.4472135954324694
vn -1 0 0
vn 0 0.707106781186547 0.7071067811865479
vn 0 0 -0.9999999999999999
vn 0 0.9781543257485901 -0.2078800495942814
vn 0.9989244343041332 -0.04147263724751291 -0.020736318619844835
vn 0.9946566175296787 0 -0.10323862263909991
vn 0 0.9781543257485903 -0.20788004959428144
vn 0 0.8944271910336602 0.4472135954324694
usemtl Material
f 1//1 2//1 3//1
f 1//2 3//2 4//2
f 5//3 4//3 3//3
f 5//4 3//4 6//4
f 7//5 2//5 6//5
f 7//6 6//6 3//6
f 7//7 3//7 2//7
f 8//8 6//8 2//8
f 8//9 2//9 1//9
f 9//10 8//10 5//10
f 9//11 5//11 6//11
f 9//12 6//12 8//12
f 10//13 1//13 4//13
f 10//14 4//14 5//14
f 11//15 8//15 1//15
f 11//16 1//16 10//16
f 11//17 10//17 5//17
f 11//18 5//18 8//18
