# exported by https://3dviewer.net
mtllib model.mtl
g ImageToStl.com_multi_shaped_object000
v 152.412680112 54.338433779 64.941055004
v 86.146297455 51.687778473 94.098263374
v 152.412680112 25.18122541 64.941055004
v 152.412680112 64.941055004 30.482536022
v 152 15.025034185 24.9119723
v 83.495642149 15.025034185 24.9119723
v 83.495642149 64.846844143 25.124404486
v 83.495642149 64.941055004 30.482536022
v 83.495642149 59.639744392 83.495642149
v 86.146297455 56.989089086 88.796952761
v 152.412680112 59.639744392 59.639744392
v 86.146297455 27.831880716 94.098263374
v 82.004357388 50.946316165 93.046797951
v 152.412680112 14.578604185 30.482536022
v 152 64.846844143 25.124404486
v 86.146297455 59.639744392 83.495642149
v 86.146297455 22.530570104 88.796952761
v 83.495642149 22.530570104 88.796952761
v 81.867443109 28.641416821 92.950261637
v 82.456452897 55.150518418 87.847333387
v 83.495642149 19.879914797 80.844986842
v 152.412680112 19.879914797 56.989089086
v 83.495642149 14.578604185 30.482536022
v 152.412680112 22.530570104 62.290399698
v 86.146297455 19.879914797 80.844986842
vn 0.40273861427666324 0 0.9153150324180812
vn 1 0 0
vn 0 0.004263800435238193 -0.9999909099616099
vn 0 0.9950371902112899 0.09950371900799042
vn 0 0.9998454587130016 -0.017580065158799684
vn 0.2721655269873174 0.6804138174374901 0.6804138174374901
vn 1 0 0
vn 0.2721655270063316 0.6804138173695136 0.6804138174978605
vn 0.4027386142766633 0 0.9153150324180813
vn -0.9951537579204726 0.09831586753350938 -0.0017286665077299321
vn -0.4365168515990605 0.6982377913892626 0.567377321494161
vn -0.2926827197073023 0.676142302176375 0.6761423021763752
vn -0.24605363177650255 0 0.9692562149863128
vn 0.9972671508789775 0 -0.07387983336287936
vn 1 0 0
vn 0 -0.9968041041042783 -0.0798847797823062
vn 0 0.004263800435238193 -0.9999909099616099
vn 0 0.9998454587130016 -0.017580065158799684
vn 0.997046641988176 0.00032745303628712013 -0.07679769836792484
vn 0.06426563440473956 0.981836081298459 0.17851565112068465
vn 0 0.9950371902112901 0.09950371900799042
vn 0 0.8944271909999157 0.44721359549995787
vn 0.15895007985592916 0.8830559991818384 0.4415279995909192
vn 0 -0.7071067812532389 0.707106781119856
vn 0.27216552695879553 -0.6804138175073681 0.6804138173790204
vn -0.9997668332566891 0.00622636183311429 -0.020676352149608022
vn -0.9997132913420368 0.00010209421639201354 -0.023944199523954286
vn -0.31148951838986993 -0.5895278246032982 0.7452725836576504
vn -0.2595875721597594 -0.002586222309126593 0.9657161093377129
vn -0.7718562801384167 0.5255420740168476 0.3578315403216387
vn -0.9683833437224825 0.24822877423347336 0.024822877420069694
vn -0.9942283903035268 0.1072838211346274 0.0002993947413164511
vn -0.9399480368526463 -0.32380228413322953 0.10793409473822288
vn 0 -0.9486832980266536 0.3162277660884186
vn 1 0 0
vn 0 -0.9968041041042781 -0.07988477978230617
vn 0 -0.9945054529227044 0.1046847845057077
vn -0.9769175558164324 -0.21244296045900343 0.022362416887757246
vn -0.9963514011333251 -0.08507292622308253 -0.006817821022992476
vn 1 0 0
vn 0.27216552697780994 -0.6804138174393919 0.680413817439391
vn 0.17609018131791018 -0.8804509062507456 0.440225453291454
vn 0 -0.9945054529227044 0.1046847845057077
vn 0.07042650231166375 -0.9781458656087034 0.19562917309221917
vn 0.11311139349041016 -0.9425949455368935 0.3141983152579882
vn 0 -0.9486832980266536 0.3162277660884186
usemtl Material
f 1//1 2//1 3//1
f 1//2 3//2 4//2
f 5//3 6//3 7//3
f 8//4 9//4 4//4
f 8//5 4//5 7//5
f 10//6 2//6 1//6
f 11//7 1//7 4//7
f 11//8 10//8 1//8
f 12//9 3//9 2//9
f 13//10 8//10 7//10
f 13//11 10//11 9//11
f 13//12 2//12 10//12
f 13//13 12//13 2//13
f 14//14 5//14 4//14
f 14//15 4//15 3//15
f 14//16 6//16 5//16
f 15//17 5//17 7//17
f 15//18 7//18 4//18
f 15//19 4//19 5//19
f 16//20 11//20 4//20
f 16//21 4//21 9//21
f 16//22 9//22 10//22
f 16//23 10//23 11//23
f 17//24 12//24 18//24
f 17//25 3//25 12//25
f 19//26 13//26 7//26
f 19//27 7//27 6//27
f 19//28 18//28 12//28
f 19//29 12//29 13//29
f 20//30 13//30 9//30
f 20//31 9//31 8//31
f 20//32 8//32 13//32
f 21//33 18//33 19//33
f 21//34 17//34 18//34
f 22//35 14//35 3//35
f 23//36 6//36 14//36
f 23//37 14//37 21//37
f 23//38 21//38 19//38
f 23//39 19//39 6//39
f 24//40 22//40 3//40
f 24//41 3//41 17//41
f 24//42 17//42 22//42
f 25//43 21//43 14//43
f 25//44 14//44 22//44
f 25//45 22//45 17//45
f 25//46 17//46 21//46
